<svg height="496pt" viewBox="-7 0 495 496" width="496pt" xmlns="http://www.w3.org/2000/svg" xmlns:xlink="http://www.w3.org/1999/xlink"><linearGradient id="a" gradientUnits="userSpaceOnUse" x1="241.375676" x2="241.375676" y1="496" y2="0"><stop offset="0" stop-color="#9f2fff"/><stop offset="1" stop-color="#0bb1d3"/></linearGradient><path d="m217.375 227.054688v41.890624l24 12 24-12v-41.890624l-24-12zm32 32-8 4-8-4v-22.109376l8-4 8 4zm-8-259.054688c-13.230469 0-24 10.769531-24 24v8.886719l-23.695312-20.3125c-3.457032-2.949219-7.847657-4.574219-12.390626-4.574219h-.875c-10.503906 0-19.039062 8.535156-19.039062 19.039062 0 5.425782 2.320312 10.601563 6.394531 14.234376l49.605469 44.101562v25.746094l-23.6875-20.304688c-3.449219-2.960937-7.847656-4.59375-12.398438-4.59375h-.875c-10.496093 0-19.039062 8.546875-19.039062 19.050782 0 2.101562.449219 4.140624 1.113281 6.09375-1.359375-1.550782-2.898437-2.960938-4.730469-4-4.390624-2.542969-9.503906-3.214844-14.445312-1.910157-4.914062 1.3125-9.023438 4.472657-11.570312 8.871094l-.429688.75c-2.273438 3.929687-3.074219 8.554687-2.234375 13.027344l5.746094 30.679687-22.296875-12.875-13.382813-65.007812c-1.097656-5.316406-4.425781-9.933594-9.136719-12.65625-9.097656-5.246094-20.761718-2.109375-26.007812 6.976562l-.433594.753906c-2.269531 3.925782-3.070312 8.550782-2.230468 13.023438l5.742187 30.679688-7.703125-4.457032c-5.535156-3.191406-11.984375-4.0625-18.207031-2.390625-6.191407 1.648438-11.359375 5.625-14.566407 11.167969-6.617187 11.457031-2.683593 26.167969 8.78125 32.792969l7.703126 4.445312-29.421876 10.363281c-4.28125 1.503907-7.894531 4.496094-10.175781 8.4375l-.441406.761719c-5.246094 9.101563-2.128906 20.773438 6.96875 26.015625 4.71875 2.71875 10.382813 3.289063 15.519531 1.574219l62.992188-20.910156 22.296875 12.871093-29.425781 10.359376c-4.285157 1.503906-7.902344 4.503906-10.175782 8.449218l-.4375.761719c-5.242187 9.09375-2.121094 20.757813 6.964844 26.007813 1.839844 1.0625 3.839844 1.671874 5.882812 2.070312-2.042968.398438-4.042968 1.039062-5.882812 2.097656-9.085938 5.246094-12.207031 16.910156-6.964844 26.007813l.4375.757812c2.273438 3.9375 5.890625 6.9375 10.167969 8.449219l29.433594 10.359375-22.296875 12.871094-62.976563-20.902344c-5.167969-1.753906-10.816406-1.160156-15.535156 1.550781-9.097656 5.242188-12.214844 16.914063-6.96875 26.015625l.449219.769531c2.273437 3.925782 5.886718 6.925782 10.167968 8.429688l29.429688 10.363281-7.71875 4.4375c-11.457031 6.625-15.390625 21.335938-8.773438 32.785157 3.199219 5.550781 8.375 9.527343 14.566407 11.183593 6.191406 1.664063 12.664062.816407 18.207031-2.390625l7.703125-4.457031-5.734375 30.671875c-.839844 4.480469-.046875 9.105469 2.214844 13.023438l.441406.761718c3.519531 6.101563 9.9375 9.519532 16.519531 9.519532 3.222657 0 6.496094-.824219 9.488281-2.542969 4.710938-2.722657 8.039063-7.335938 9.136719-12.65625l13.382813-65.007813 22.296875-12.875-5.738281 30.671875c-.839844 4.480469-.046876 9.105469 2.21875 13.027344l.4375.757813c2.546874 4.410156 6.65625 7.558593 11.570312 8.871093 4.933594 1.328125 10.054688.632813 14.421875-1.894531 1.839844-1.054688 3.386719-2.464844 4.746094-4.023438-.65625 1.960938-1.105469 3.992188-1.105469 6.101563 0 10.496094 8.535156 19.050781 19.039062 19.050781h.875c4.542969 0 8.949219-1.632812 12.390626-4.585937l23.695312-20.320313v25.746094l-49.625 44.109375c-4.054688 3.625-6.375 8.800781-6.375 14.226563 0 10.496093 8.535156 19.039062 19.039062 19.039062h.875c4.535157 0 8.933594-1.625 12.390626-4.585938l23.695312-20.300781v8.886719c0 13.230469 10.769531 24 24 24 13.234375 0 24-10.769531 24-24v-8.886719l23.695312 20.3125c3.457032 2.949219 7.847657 4.574219 12.394532 4.574219h.871094c10.496093 0 19.039062-8.535156 19.039062-19.039062 0-5.425782-2.320312-10.601563-6.390625-14.234376l-49.609375-44.101562v-25.746094l23.6875 20.304688c3.449219 2.960937 7.847656 4.59375 12.402344 4.59375h.871094c10.496093 0 19.039062-8.546875 19.039062-19.050782 0-2.101562-.449219-4.140624-1.109375-6.09375 1.359375 1.550782 2.894531 2.960938 4.726563 4 4.390624 2.550782 9.519531 3.238282 14.449218 1.910157 4.910156-1.3125 9.023438-4.472657 11.566406-8.871094l.433594-.75c2.269532-3.929687 3.070313-8.554687 2.230469-13.027344l-5.746094-30.679687 22.296875 12.875 13.386719 65.007812c1.09375 5.316406 4.421875 9.933594 9.132813 12.65625 2.992187 1.726563 6.257812 2.542969 9.488281 2.542969 6.585937 0 13-3.425781 16.519531-9.519531l.433594-.753906c2.273437-3.925782 3.070312-8.550782 2.230468-13.023438l-5.742187-30.679688 7.703125 4.457032c5.535156 3.191406 11.992188 4.054687 18.207031 2.390625 6.195313-1.65625 11.371094-5.632813 14.570313-11.175781 6.617187-11.457032 2.679687-26.167969-8.785156-32.792969l-7.703126-4.445313 29.421876-10.363281c4.28125-1.503906 7.898437-4.496094 10.179687-8.4375l.4375-.761719c5.25-9.101562 2.128906-20.777344-6.96875-26.015625-4.726563-2.71875-10.382813-3.28125-15.519531-1.574219l-62.992188 20.910157-22.296875-12.871094 29.425781-10.359375c4.289063-1.503906 7.902344-4.503906 10.175782-8.449219l.441406-.761719c5.238281-9.09375 2.117188-20.757812-6.96875-26.007812-1.839844-1.0625-3.839844-1.695312-5.878906-2.09375 2.039062-.402344 4.039062-1.015625 5.878906-2.074219 9.085938-5.246093 12.207031-16.910156 6.96875-26.007812l-.441406-.757813c-2.273438-3.9375-5.886719-6.9375-10.167969-8.449218l-29.433594-10.359376 22.296875-12.871093 62.976563 20.902343c5.167969 1.726563 10.816406 1.152344 15.535156-1.566406 9.097656-5.242187 12.21875-16.914062 6.96875-26.015625l-.449219-.769531c-2.269531-3.929688-5.886718-6.929688-10.167968-8.433594l-29.429688-10.359375 7.710938-4.445312c11.457031-6.625 15.390624-21.335938 8.777343-32.785157-3.199219-5.550781-8.375-9.527343-14.570312-11.183593-6.183594-1.664063-12.65625-.816407-18.207031 2.390625l-7.703126 4.457031 5.734376-30.671875c.839843-4.480469.050781-9.105469-2.214844-13.023438l-.441406-.761718c-5.246094-9.085938-16.910157-12.222656-26.007813-6.976563-4.710937 2.722657-8.039063 7.335938-9.132813 12.65625l-13.386718 65.007813-22.296875 12.871094 5.738281-30.671876c.839844-4.476562.046875-9.101562-2.214844-13.023437l-.441406-.757813c-2.542969-4.410156-6.65625-7.5625-11.566406-8.875-4.921875-1.300781-10.058594-.628906-14.425782 1.898438-1.839843 1.054688-3.382812 2.464844-4.742187 4.023438.660156-1.929688 1.109375-3.960938 1.109375-6.070313 0-10.496094-8.535156-19.050781-19.039062-19.050781h-.871094c-4.546875 0-8.953125 1.632812-12.394532 4.585937l-23.695312 20.320313v-25.746094l49.625-44.109375c4.054688-3.625 6.375-8.800781 6.375-14.226563 0-10.503906-8.535156-19.039062-19.039062-19.039062h-.871094c-4.539063 0-8.9375 1.625-12.394532 4.585938l-23.695312 20.300781v-8.886719c0-13.230469-10.765625-24-24-24zm-73.605469 119.496094 49.605469 44.097656v23.460938l-17.984375 8.992187-19.117187-11.039063-13.386719-64.992187c-.160157-.792969-.472657-1.527344-.726563-2.289063.527344.601563 1.007813 1.234376 1.609375 1.769532zm113.605469 93.449218v70.109376l-40 20-40-20v-70.109376l40-20zm16 30.4375 29.105469-16.796874 63 20.910156c.703125.230468 1.429687.375 2.152343.527344-.722656.152343-1.457031.234374-2.160156.472656l-62.992187 20.910156-29.105469-16.789062zm-112 9.234376-29.101562 16.796874-63-20.910156c-.707032-.230468-1.433594-.320312-2.152344-.472656.726562-.152344 1.445312-.296875 2.160156-.527344l62.992188-20.910156 29.101562 16.796875zm-100.726562-24.714844.4375-.757813c.371093-.632812.9375-1.113281 1.625-1.351562l62.242187-21.921875-58.640625-33.855469-69.832031 23.183594c-.824219.28125-1.722657.175781-2.464844-.253907-.945313-.546874-1.289063-1.394531-1.414063-1.839843-.128906-.449219-.242187-1.363281.300782-2.3125l.433594-.753907c.367187-.632812.945312-1.109374 1.632812-1.351562l62.238281-21.917969-37.824219-21.832031c-3.824218-2.203125-5.144531-7.113281-2.925781-10.9375 1.070313-1.839844 2.789063-3.167969 4.847657-3.71875 2.085937-.554688 4.214843-.273438 6.070312.796875l37.832031 21.84375-12.144531-64.875c-.136719-.710937-.007812-1.445313.359375-2.070313l.441406-.761718c.839844-1.453125 2.695313-1.941406 4.152344-1.117188.761719.4375 1.289063 1.167969 1.464844 2.015625l14.832031 72.054688 58.640625 33.855469-12.144531-64.871094c-.136719-.710938-.007813-1.449219.359375-2.074219l.441406-.757813c.542969-.953124 1.390625-1.296874 1.839844-1.425781.460937-.101562 1.351562-.230469 2.320312.320313.742188.433594 1.269531 1.160156 1.445313 2.015625l14.832031 72.042969 19.328125 11.160156v18.476562l-27.320312-15.773437-69.816407 23.175781c-.832031.273438-1.734375.175781-2.488281-.257812-1.4375-.839844-1.933594-2.695313-1.101562-4.152344zm66.566406 144.882812c-.167969.839844-.703125 1.566406-1.472656 2.015625-.941407.535157-1.839844.414063-2.292969.304688-.457031-.128907-1.296875-.472657-1.839844-1.425781l-.449219-.769532c-.359375-.613281-.488281-1.351562-.34375-2.070312l12.136719-64.863282-58.640625 33.855469-14.832031 72.054688c-.167969.839843-.703125 1.578125-1.464844 2.015625-1.464844.824218-3.3125.335937-4.152344-1.117188l-.449219-.769531c-.359374-.617187-.488281-1.351563-.34375-2.070313l12.136719-64.867187-37.832031 21.84375c-1.847656 1.0625-4.023438 1.351563-6.070312.796875-2.058594-.542969-3.769532-1.871094-4.839844-3.71875-2.210938-3.824219-.890625-8.726562 2.917968-10.929688l37.832032-21.832031-62.246094-21.917969c-.679688-.242187-1.257812-.71875-1.617188-1.34375l-.441406-.761718c-.542968-.949219-.429687-1.855469-.300781-2.3125.125-.453125.46875-1.292969 1.414063-1.839844.761718-.4375 1.65625-.535156 2.480468-.246094l69.824219 23.175782 58.640625-33.855469-62.25-21.921875c-.679688-.238282-1.246094-.71875-1.613281-1.351563l-.441407-.757812c-.832031-1.457031-.335937-3.3125 1.113282-4.152344.75-.441406 1.664062-.519531 2.476562-.257813l69.824219 23.175782 27.296875-15.773438v18.476563l-19.320312 11.152343zm14.953125 5.472656c.253906-.746093.558593-1.472656.71875-2.257812l13.386719-65.007812 19.117187-11.039063 17.984375 8.992187v23.460938l-49.617188 44.105469c-.589843.527343-1.070312 1.152343-1.589843 1.746093zm136.167969 15.527344h-.871094c-.730469 0-1.425782-.257812-1.984375-.746094l-50.105469-42.933593v67.710937l54.96875 48.855469c.65625.585937 1.03125 1.425781 1.03125 2.289063 0 1.679687-1.359375 3.039062-3.039062 3.039062h-.871094c-.730469 0-1.433594-.257812-1.984375-.726562l-50.105469-42.960938v43.6875c0 4.414062-3.582031 8-8 8-4.414062 0-8-3.585938-8-8v-43.6875l-50.101562 42.953125c-.554688.476563-1.257813.734375-1.984376.734375h-.875c-1.679687 0-3.039062-1.359375-3.039062-3.039062 0-.863282.375-1.703126 1.015625-2.28125l54.984375-48.863282v-67.710937l-50.109375 42.941406c-.554687.480469-1.25.738281-1.976563.738281h-.875c-1.679687 0-3.039062-1.371094-3.039062-3.050781 0-.863281.375-1.695313 1.015625-2.269531l54.984375-48.871094v-22.648438l8 4 8-4v22.648438l54.976562 48.863281c.648438.582031 1.023438 1.40625 1.023438 2.277344 0 1.679687-1.359375 3.050781-3.039062 3.050781zm12.648437-17.28125-49.609375-44.097656v-23.460938l17.984375-8.992187 19.121094 11.039063 13.382812 64.992187c.160157.792969.472657 1.527344.726563 2.289063-.527344-.601563-1.007813-1.234376-1.605469-1.769532zm83.121094-108.40625-.441407.757813c-.367187.632812-.9375 1.113281-1.625 1.351562l-62.238281 21.921875 58.640625 33.855469 69.832032-23.183594c.820312-.265625 1.71875-.167969 2.460937.253907.945313.546874 1.289063 1.394531 1.417969 1.839843.128906.449219.238281 1.363281-.304688 2.3125l-.433594.753907c-.367187.632812-.941406 1.109374-1.628906 1.351562l-62.242187 21.917969 37.824219 21.832031c3.824218 2.203125 5.144531 7.113281 2.929687 10.9375-1.074219 1.839844-2.792969 3.167969-4.847656 3.71875-2.082031.5625-4.210938.273438-6.074219-.796875l-37.832031-21.84375 12.144531 64.875c.136719.710937.007812 1.445313-.359375 2.070313l-.441406.761718c-.832031 1.453125-2.6875 1.949219-4.152344 1.117188-.757813-.4375-1.285156-1.167969-1.460937-2.015625l-14.832032-72.054688-58.640625-33.855469 12.144531 64.871094c.132813.710938.007813 1.449219-.363281 2.074219l-.4375.757813c-.542969.953124-1.394531 1.296874-1.839843 1.425781-.457032.117187-1.34375.238281-2.320313-.320313-.746094-.433594-1.273437-1.160156-1.449219-2.015625l-14.832031-72.042969-19.328125-11.160156v-18.476562l27.320312 15.773437 69.816407-23.175781c.832031-.261719 1.734375-.175781 2.488281.257812 1.441406.839844 1.9375 2.695313 1.105469 4.152344zm-66.570313-144.882812c.167969-.839844.703125-1.566406 1.472656-2.015625.9375-.550781 1.832032-.421875 2.296876-.304688.453124.128907 1.296874.472657 1.839843 1.425781l.445313.769532c.363281.613281.488281 1.351562.347656 2.070312l-12.136719 64.863282 58.640625-33.855469 14.832032-72.054688c.167968-.839843.703124-1.578125 1.460937-2.015625 1.449219-.839844 3.304687-.34375 4.152344 1.117188l.449219.769531c.359374.617187.488281 1.351563.34375 2.070313l-12.136719 64.867187 37.832031-21.84375c1.847656-1.070313 4.007812-1.367187 6.074219-.796875 2.0625.542969 3.78125 1.871094 4.847656 3.726562 2.207031 3.824219.886719 8.726563-2.921875 10.929688l-37.832031 21.832031 62.25 21.917969c.679687.242188 1.253906.71875 1.613281 1.34375l.441406.761719c.542969.949219.433594 1.855469.304688 2.3125-.128906.453125-.472656 1.292969-1.417969 1.839843-.757813.445313-1.648437.535157-2.480469.246094l-69.820312-23.175781-58.640625 33.855469 62.246093 21.921875c.679688.238281 1.25.71875 1.617188 1.351562l.4375.757813c.832031 1.457031.339844 3.3125-1.109375 4.152344-.753906.441406-1.664063.53125-2.480469.257812l-69.824218-23.175781-27.304688 15.765625v-18.476563l19.320312-11.152343zm-14.953125-5.472656c-.253906.746093-.558593 1.472656-.71875 2.257812l-13.382812 65.007812-19.121094 11.039063-17.984375-8.992187v-23.460938l49.617188-44.105469c.589843-.527343 1.070312-1.152343 1.589843-1.746093zm-17.101562-93.007813c.550781-.476563 1.253906-.734375 1.984375-.734375h.871094c1.679687 0 3.039062 1.359375 3.039062 3.039062 0 .863282-.375 1.703126-1.015625 2.28125l-54.984375 48.863282v67.710937l50.113281-42.941406c.550781-.480469 1.246094-.738281 1.976563-.738281h.871094c1.679687 0 3.039062 1.371094 3.039062 3.050781 0 .863281-.375 1.695313-1.015625 2.269531l-54.984375 48.871094v22.648438l-8-4-8 4v-22.648438l-54.976562-48.863281c-.648438-.582031-1.023438-1.40625-1.023438-2.277344 0-1.679687 1.359375-3.050781 3.039062-3.050781h.875c.726563 0 1.421876.257812 1.984376.746094l50.101562 42.933593v-67.710937l-54.96875-48.855469c-.65625-.585937-1.03125-1.425781-1.03125-2.289063 0-1.679687 1.359375-3.039062 3.039062-3.039062h.875c.726563 0 1.429688.257812 1.984376.726562l50.101562 42.960938v-43.6875c0-4.414062 3.585938-8 8-8 4.417969 0 8 3.585938 8 8v43.6875zm0 0" fill="url(#a)"/></svg>